{"title":"Worlds.Apart.2008.aka.To.verdener.SWESUB.DVDRip.XviD.-Zen_Bud","uid":5647080,"size":735496192,"categoryP":"video","categoryS":"movies","magnet":"?xt=urn:btih:ee2fba5524f5931347a558423195934a9ac96eca&amp;dn=Worlds.Apart.2008.aka.To.verdener.SWESUB.DVDRip.XviD.-Zen_Bud&amp;tr=udp%3A%2F%2Ftracker.openbittorrent.com%3A80&amp;tr=udp%3A%2F%2Fopen.demonii.com%3A1337&amp;tr=udp%3A%2F%2Ftracker.coppersurfer.tk%3A6969&amp;tr=udp%3A%2F%2Fexodus.desync.com%3A6969","seeders":0,"leechers":1,"uploader":"Zen_Bud","files":-1,"time":1277324979,"description":"General\nComplete name                    : Worlds.Apart.avi\nFormat                           : AVI\nFile size                        : 701 MiB\nDuration                         : 1h 49mn\nOverall bit rate                 : 899 Kbps\n\n\nVideo\n\nFormat                           : MPEG-4 Visual\nCodec ID/Hint                    : XviD\nDuration                         : 1h 49mn\nBit rate                         : 775 Kbps\nWidth                            : 672 pixels\nHeight                           : 288 pixels\nDisplay aspect ratio             : 2.35:1\nStream size                      : 605 MiB (86%)\nWriting library                  : XviD 1.3.0.dev55\n\nAudio\n\nFormat                           : MPEG Audio\nCodec ID/Hint                    : MP3\nNominal bit rate                 : 128 Kbps\nChannel(s)                       : 2 channels\nSampling rate                    : 48.0 KHz\nStream size                      : 86.6 MiB (12%)\nWriting library                  : LAME3.98r\n\n\n","torrent":{"xt":"urn:btih:ee2fba5524f5931347a558423195934a9ac96eca","amp;dn":"Worlds.Apart.2008.aka.To.verdener.SWESUB.DVDRip.XviD.-Zen_Bud","amp;tr":["udp%3A%2F%2Ftracker.openbittorrent.com%3A80","udp%3A%2F%2Fopen.demonii.com%3A1337","udp%3A%2F%2Ftracker.coppersurfer.tk%3A6969","udp%3A%2F%2Fexodus.desync.com%3A6969"],"infoHash":"ee2fba5524f5931347a558423195934a9ac96eca","infoHashBuffer":{"type":"Buffer","data":[238,47,186,85,36,245,147,19,71,165,88,66,49,149,147,74,154,201,110,202]},"announce":[],"urlList":[]}}